<?xml version="1.0" encoding="UTF-8"?>
<svg width="17px" height="17px" viewBox="0 0 17 17" version="1.1" xmlns="http://www.w3.org/2000/svg" xmlns:xlink="http://www.w3.org/1999/xlink">
    <!-- Generator: Sketch 54.1 (76490) - https://sketchapp.com -->
    <title>noun_Cross_1776318</title>
    <desc>Created with Sketch.</desc>
    <g id="Page-1" stroke="none" stroke-width="1" fill="none" fill-rule="evenodd">
        <g id="noun_Cross_1776318" fill="#FF6161" fill-rule="nonzero">
            <g id="Group" transform="translate(0.000000, 0.193624)">
                <path d="M16.4423329,0.364024643 C16.0866899,0.00839071429 15.5100408,0.00839071429 15.1543917,0.364024643 L8.49998755,7.01843179 L1.84560773,0.364055 C1.48994345,0.00839071429 0.913327732,0.00839071429 0.557663446,0.364055 C0.202017375,0.719719286 0.201996125,1.29632286 0.557663446,1.6520175 L7.21204327,8.30638214 L0.557684696,14.9607286 C0.202029518,15.3163929 0.202041661,15.8930268 0.557684696,16.2486607 C0.913352018,16.604325 1.48997684,16.604325 1.84562898,16.2486607 L8.49998452,9.59431429 L15.1543704,16.2486911 C15.5100317,16.6043554 16.0866656,16.6043554 16.4423117,16.2486911 C16.7979759,15.8930268 16.797979,15.3164232 16.4423117,14.9607589 L9.78793184,8.30638214 L16.4423359,1.65198714 C16.7979881,1.29632286 16.7980002,0.719688929 16.4423329,0.364024643 L16.4423329,0.364024643 Z" id="Path"></path>
            </g>
        </g>
    </g>
</svg>