<?xml version="1.0" encoding="UTF-8"?>
<svg width="21px" height="17px" viewBox="0 0 21 17" version="1.1" xmlns="http://www.w3.org/2000/svg" xmlns:xlink="http://www.w3.org/1999/xlink">
    <g id="Page-1" stroke="none" stroke-width="1" fill="none" fill-rule="evenodd">
        <g id="Mobile-Copy" transform="translate(-278.000000, -13.000000)" fill="#FF6161" fill-rule="nonzero">
            <g id="noun_menu_1570746" transform="translate(278.000000, 13.000000)">
                <g id="Group" transform="translate(0.000000, 0.191346)">
                    <path d="M1.46511623,0 C0.655956978,0 0,0.632044427 0,1.41176408 C0,2.19143197 0.655956978,2.82352817 1.46511623,2.82352817 L19.5348837,2.82352817 C20.344043,2.82352817 21,2.19143197 21,1.41176408 C21,0.632044427 20.344043,0 19.5348837,0 L1.46511623,0 Z M1.46511623,6.58823239 C0.655956978,6.58823239 0,7.22027681 0,8.00000353 C0,8.77967377 0.655956978,9.41176761 1.46511623,9.41176761 L19.5348837,9.41176761 C20.344043,9.41176761 21,8.77967377 21,8.00000353 C21,7.22027681 20.344043,6.58823239 19.5348837,6.58823239 L1.46511623,6.58823239 Z M1.46511623,13.1764718 C0.655956978,13.1764718 0,13.8085186 0,14.5882359 C0,15.3679062 0.655956978,16 1.46511623,16 L19.5348837,16 C20.344043,16 21,15.3679062 21,14.5882359 C21,13.8085186 20.344043,13.1764718 19.5348837,13.1764718 L1.46511623,13.1764718 Z" id="Shape"></path>
                </g>
            </g>
        </g>
    </g>
</svg>