<?xml version="1.0" encoding="UTF-8"?>
<svg width="37px" height="39px" viewBox="0 0 37 39" version="1.1" xmlns="http://www.w3.org/2000/svg" xmlns:xlink="http://www.w3.org/1999/xlink">
    <!-- Generator: Sketch 54 (76480) - https://sketchapp.com -->
    <title>Group 5 Copy</title>
    <desc>Created with Sketch.</desc>
    <defs>
        <linearGradient x1="50%" y1="0%" x2="50%" y2="100%" id="linearGradient-1">
            <stop stop-color="#F8D824" offset="0%"></stop>
            <stop stop-color="#DDB218" offset="100%"></stop>
        </linearGradient>
        <linearGradient x1="50%" y1="0%" x2="50%" y2="100%" id="linearGradient-2">
            <stop stop-color="#F8D824" offset="0%"></stop>
            <stop stop-color="#DDB218" offset="100%"></stop>
        </linearGradient>
        <linearGradient x1="50%" y1="0%" x2="50%" y2="100%" id="linearGradient-3">
            <stop stop-color="#F8D824" offset="0%"></stop>
            <stop stop-color="#DDB218" offset="100%"></stop>
        </linearGradient>
        <linearGradient x1="50%" y1="0%" x2="50%" y2="100%" id="linearGradient-4">
            <stop stop-color="#F8D824" offset="0%"></stop>
            <stop stop-color="#DDB218" offset="100%"></stop>
        </linearGradient>
        <linearGradient x1="50%" y1="0%" x2="50%" y2="100%" id="linearGradient-5">
            <stop stop-color="#F8D824" offset="0%"></stop>
            <stop stop-color="#DDB218" offset="100%"></stop>
        </linearGradient>
        <linearGradient x1="50%" y1="0%" x2="50%" y2="100%" id="linearGradient-6">
            <stop stop-color="#F8D824" offset="0%"></stop>
            <stop stop-color="#DDB218" offset="100%"></stop>
        </linearGradient>
        <linearGradient x1="50%" y1="0%" x2="50%" y2="100%" id="linearGradient-7">
            <stop stop-color="#F8D824" offset="0%"></stop>
            <stop stop-color="#DDB218" offset="100%"></stop>
        </linearGradient>
        <linearGradient x1="50%" y1="0%" x2="50%" y2="100%" id="linearGradient-8">
            <stop stop-color="#F8D824" offset="0%"></stop>
            <stop stop-color="#DDB218" offset="100%"></stop>
        </linearGradient>
        <linearGradient x1="50%" y1="0%" x2="50%" y2="100%" id="linearGradient-9">
            <stop stop-color="#F8D824" offset="0%"></stop>
            <stop stop-color="#DDB218" offset="100%"></stop>
        </linearGradient>
        <linearGradient x1="50%" y1="0%" x2="50%" y2="100%" id="linearGradient-10">
            <stop stop-color="#F8D824" offset="0%"></stop>
            <stop stop-color="#DDB218" offset="100%"></stop>
        </linearGradient>
        <linearGradient x1="50%" y1="0%" x2="50%" y2="100%" id="linearGradient-11">
            <stop stop-color="#F8D824" offset="0%"></stop>
            <stop stop-color="#DDB218" offset="100%"></stop>
        </linearGradient>
        <linearGradient x1="50%" y1="0%" x2="50%" y2="100%" id="linearGradient-12">
            <stop stop-color="#F8D824" offset="0%"></stop>
            <stop stop-color="#DDB218" offset="100%"></stop>
        </linearGradient>
        <linearGradient x1="50%" y1="0%" x2="50%" y2="100%" id="linearGradient-13">
            <stop stop-color="#F8D824" offset="0%"></stop>
            <stop stop-color="#DDB218" offset="100%"></stop>
        </linearGradient>
        <linearGradient x1="50%" y1="0%" x2="50%" y2="100%" id="linearGradient-14">
            <stop stop-color="#F8D824" offset="0%"></stop>
            <stop stop-color="#DDB218" offset="100%"></stop>
        </linearGradient>
        <linearGradient x1="50%" y1="0%" x2="50%" y2="100%" id="linearGradient-15">
            <stop stop-color="#F8D824" offset="0%"></stop>
            <stop stop-color="#DDB218" offset="100%"></stop>
        </linearGradient>
        <linearGradient x1="50%" y1="0%" x2="50%" y2="100%" id="linearGradient-16">
            <stop stop-color="#F8D824" offset="0%"></stop>
            <stop stop-color="#DDB218" offset="100%"></stop>
        </linearGradient>
        <linearGradient x1="50%" y1="0%" x2="50%" y2="100%" id="linearGradient-17">
            <stop stop-color="#F8D824" offset="0%"></stop>
            <stop stop-color="#DDB218" offset="100%"></stop>
        </linearGradient>
        <linearGradient x1="50%" y1="0%" x2="50%" y2="100%" id="linearGradient-18">
            <stop stop-color="#F8D824" offset="0%"></stop>
            <stop stop-color="#DDB218" offset="100%"></stop>
        </linearGradient>
        <linearGradient x1="50%" y1="0%" x2="50%" y2="100%" id="linearGradient-19">
            <stop stop-color="#F8D824" offset="0%"></stop>
            <stop stop-color="#DDB218" offset="100%"></stop>
        </linearGradient>
        <linearGradient x1="50%" y1="0%" x2="50%" y2="100%" id="linearGradient-20">
            <stop stop-color="#F8D824" offset="0%"></stop>
            <stop stop-color="#DDB218" offset="100%"></stop>
        </linearGradient>
        <linearGradient x1="50%" y1="0%" x2="50%" y2="100%" id="linearGradient-21">
            <stop stop-color="#F8D824" offset="0%"></stop>
            <stop stop-color="#DDB218" offset="100%"></stop>
        </linearGradient>
        <linearGradient x1="50%" y1="0%" x2="50%" y2="100%" id="linearGradient-22">
            <stop stop-color="#F8D824" offset="0%"></stop>
            <stop stop-color="#DDB218" offset="100%"></stop>
        </linearGradient>
        <linearGradient x1="50%" y1="0%" x2="50%" y2="100%" id="linearGradient-23">
            <stop stop-color="#F8D824" offset="0%"></stop>
            <stop stop-color="#DDB218" offset="100%"></stop>
        </linearGradient>
        <linearGradient x1="50%" y1="0%" x2="50%" y2="100%" id="linearGradient-24">
            <stop stop-color="#F8D824" offset="0%"></stop>
            <stop stop-color="#DDB218" offset="100%"></stop>
        </linearGradient>
        <linearGradient x1="50%" y1="0%" x2="50%" y2="100%" id="linearGradient-25">
            <stop stop-color="#F8D824" offset="0%"></stop>
            <stop stop-color="#DDB218" offset="100%"></stop>
        </linearGradient>
        <linearGradient x1="50%" y1="0%" x2="50%" y2="100%" id="linearGradient-26">
            <stop stop-color="#F8D824" offset="0%"></stop>
            <stop stop-color="#DDB218" offset="100%"></stop>
        </linearGradient>
        <linearGradient x1="50%" y1="0%" x2="50%" y2="100%" id="linearGradient-27">
            <stop stop-color="#F8D824" offset="0%"></stop>
            <stop stop-color="#DDB218" offset="100%"></stop>
        </linearGradient>
        <linearGradient x1="50%" y1="0%" x2="50%" y2="100%" id="linearGradient-28">
            <stop stop-color="#F8D824" offset="0%"></stop>
            <stop stop-color="#DDB218" offset="100%"></stop>
        </linearGradient>
        <linearGradient x1="50%" y1="0%" x2="50%" y2="100%" id="linearGradient-29">
            <stop stop-color="#F8D824" offset="0%"></stop>
            <stop stop-color="#DDB218" offset="100%"></stop>
        </linearGradient>
        <linearGradient x1="50%" y1="0%" x2="50%" y2="100%" id="linearGradient-30">
            <stop stop-color="#F8D824" offset="0%"></stop>
            <stop stop-color="#DDB218" offset="100%"></stop>
        </linearGradient>
        <linearGradient x1="50%" y1="0%" x2="50%" y2="100%" id="linearGradient-31">
            <stop stop-color="#F8D824" offset="0%"></stop>
            <stop stop-color="#DDB218" offset="100%"></stop>
        </linearGradient>
        <linearGradient x1="50%" y1="0%" x2="50%" y2="100%" id="linearGradient-32">
            <stop stop-color="#F8D824" offset="0%"></stop>
            <stop stop-color="#DDB218" offset="100%"></stop>
        </linearGradient>
        <linearGradient x1="50%" y1="0%" x2="50%" y2="100%" id="linearGradient-33">
            <stop stop-color="#F8D824" offset="0%"></stop>
            <stop stop-color="#DDB218" offset="100%"></stop>
        </linearGradient>
        <linearGradient x1="50%" y1="0%" x2="50%" y2="100%" id="linearGradient-34">
            <stop stop-color="#F8D824" offset="0%"></stop>
            <stop stop-color="#DDB218" offset="100%"></stop>
        </linearGradient>
        <linearGradient x1="50%" y1="0%" x2="50%" y2="100%" id="linearGradient-35">
            <stop stop-color="#F8D824" offset="0%"></stop>
            <stop stop-color="#DDB218" offset="100%"></stop>
        </linearGradient>
        <linearGradient x1="50%" y1="0%" x2="50%" y2="100%" id="linearGradient-36">
            <stop stop-color="#F8D824" offset="0%"></stop>
            <stop stop-color="#DDB218" offset="100%"></stop>
        </linearGradient>
        <linearGradient x1="50%" y1="0%" x2="50%" y2="100%" id="linearGradient-37">
            <stop stop-color="#F8D824" offset="0%"></stop>
            <stop stop-color="#DDB218" offset="100%"></stop>
        </linearGradient>
        <linearGradient x1="50%" y1="0%" x2="50%" y2="100%" id="linearGradient-38">
            <stop stop-color="#F8D824" offset="0%"></stop>
            <stop stop-color="#DDB218" offset="100%"></stop>
        </linearGradient>
        <linearGradient x1="50%" y1="0%" x2="50%" y2="100%" id="linearGradient-39">
            <stop stop-color="#F8D824" offset="0%"></stop>
            <stop stop-color="#DDB218" offset="100%"></stop>
        </linearGradient>
        <linearGradient x1="50%" y1="0%" x2="50%" y2="100%" id="linearGradient-40">
            <stop stop-color="#F8D824" offset="0%"></stop>
            <stop stop-color="#DDB218" offset="100%"></stop>
        </linearGradient>
        <linearGradient x1="50%" y1="0%" x2="50%" y2="100%" id="linearGradient-41">
            <stop stop-color="#F8D824" offset="0%"></stop>
            <stop stop-color="#DDB218" offset="100%"></stop>
        </linearGradient>
        <linearGradient x1="50%" y1="0%" x2="50%" y2="100%" id="linearGradient-42">
            <stop stop-color="#F8D824" offset="0%"></stop>
            <stop stop-color="#DDB218" offset="100%"></stop>
        </linearGradient>
        <linearGradient x1="50%" y1="0%" x2="50%" y2="100%" id="linearGradient-43">
            <stop stop-color="#F8D824" offset="0%"></stop>
            <stop stop-color="#DDB218" offset="100%"></stop>
        </linearGradient>
        <linearGradient x1="50%" y1="0%" x2="50%" y2="100%" id="linearGradient-44">
            <stop stop-color="#F8D824" offset="0%"></stop>
            <stop stop-color="#DDB218" offset="100%"></stop>
        </linearGradient>
        <linearGradient x1="50%" y1="0%" x2="50%" y2="100%" id="linearGradient-45">
            <stop stop-color="#F8D824" offset="0%"></stop>
            <stop stop-color="#DDB218" offset="100%"></stop>
        </linearGradient>
        <linearGradient x1="50%" y1="0%" x2="50%" y2="100%" id="linearGradient-46">
            <stop stop-color="#F8D824" offset="0%"></stop>
            <stop stop-color="#DDB218" offset="100%"></stop>
        </linearGradient>
        <linearGradient x1="50%" y1="0%" x2="50%" y2="100%" id="linearGradient-47">
            <stop stop-color="#F8D824" offset="0%"></stop>
            <stop stop-color="#DDB218" offset="100%"></stop>
        </linearGradient>
        <linearGradient x1="50%" y1="0%" x2="50%" y2="100%" id="linearGradient-48">
            <stop stop-color="#F8D824" offset="0%"></stop>
            <stop stop-color="#DDB218" offset="100%"></stop>
        </linearGradient>
        <linearGradient x1="50%" y1="0%" x2="50%" y2="100%" id="linearGradient-49">
            <stop stop-color="#F8D824" offset="0%"></stop>
            <stop stop-color="#DDB218" offset="100%"></stop>
        </linearGradient>
        <linearGradient x1="50%" y1="0%" x2="50%" y2="100%" id="linearGradient-50">
            <stop stop-color="#F8D824" offset="0%"></stop>
            <stop stop-color="#DDB218" offset="100%"></stop>
        </linearGradient>
        <linearGradient x1="50%" y1="0%" x2="50%" y2="100%" id="linearGradient-51">
            <stop stop-color="#F8D824" offset="0%"></stop>
            <stop stop-color="#DDB218" offset="100%"></stop>
        </linearGradient>
        <linearGradient x1="50%" y1="0%" x2="50%" y2="100%" id="linearGradient-52">
            <stop stop-color="#F8D824" offset="0%"></stop>
            <stop stop-color="#DDB218" offset="100%"></stop>
        </linearGradient>
        <linearGradient x1="50%" y1="0%" x2="50%" y2="100%" id="linearGradient-53">
            <stop stop-color="#F8D824" offset="0%"></stop>
            <stop stop-color="#DDB218" offset="100%"></stop>
        </linearGradient>
        <linearGradient x1="50%" y1="0%" x2="50%" y2="100%" id="linearGradient-54">
            <stop stop-color="#F8D824" offset="0%"></stop>
            <stop stop-color="#DDB218" offset="100%"></stop>
        </linearGradient>
        <linearGradient x1="50%" y1="0%" x2="50%" y2="100%" id="linearGradient-55">
            <stop stop-color="#F8D824" offset="0%"></stop>
            <stop stop-color="#DDB218" offset="100%"></stop>
        </linearGradient>
        <linearGradient x1="50%" y1="0%" x2="50%" y2="100%" id="linearGradient-56">
            <stop stop-color="#F8D824" offset="0%"></stop>
            <stop stop-color="#DDB218" offset="100%"></stop>
        </linearGradient>
        <linearGradient x1="50%" y1="0%" x2="50%" y2="100%" id="linearGradient-57">
            <stop stop-color="#F8D824" offset="0%"></stop>
            <stop stop-color="#DDB218" offset="100%"></stop>
        </linearGradient>
        <linearGradient x1="50%" y1="0%" x2="50%" y2="100%" id="linearGradient-58">
            <stop stop-color="#F8D824" offset="0%"></stop>
            <stop stop-color="#DDB218" offset="100%"></stop>
        </linearGradient>
        <linearGradient x1="50%" y1="0%" x2="50%" y2="100%" id="linearGradient-59">
            <stop stop-color="#F8D824" offset="0%"></stop>
            <stop stop-color="#DDB218" offset="100%"></stop>
        </linearGradient>
        <linearGradient x1="50%" y1="0%" x2="50%" y2="100%" id="linearGradient-60">
            <stop stop-color="#F8D824" offset="0%"></stop>
            <stop stop-color="#DDB218" offset="100%"></stop>
        </linearGradient>
        <linearGradient x1="50%" y1="0%" x2="50%" y2="100%" id="linearGradient-61">
            <stop stop-color="#F8D824" offset="0%"></stop>
            <stop stop-color="#DDB218" offset="100%"></stop>
        </linearGradient>
    </defs>
    <g id="Page-1" stroke="none" stroke-width="1" fill="none" fill-rule="evenodd">
        <g id="Mobile-Copy" transform="translate(-21.000000, -2.000000)">
            <g id="Group-5-Copy" transform="translate(21.000000, 2.000000)">
                <g id="Group-2" transform="translate(0.000000, 0.840000)">
                    <path d="M36.5240981,20.426688 C36.4313621,19.993248 34.9838743,20.618208 34.6976023,20.7048959 C34.7762263,20.503296 34.9858903,20.114208 35.1995863,20.01744 C35.4132822,19.9206721 35.7701142,20.01744 36.0059862,20.001312 C36.2418581,19.985184 36.4091861,19.5497281 36.0725142,19.4892481 C35.9414742,19.4650561 35.9112342,19.5759361 35.8164822,19.6344001 C35.6611782,19.7018558 35.4998551,19.7545052 35.3346583,19.7916481 C35.4086582,19.6422362 35.506736,19.5060171 35.6249622,19.3884481 C35.7297942,19.2876481 35.9112342,19.2070082 35.9354262,19.0497602 C35.9898582,18.6888962 35.4193302,18.7352642 35.4394902,19.0719362 C35.4576342,19.3561921 35.0181463,19.8783361 34.8346903,20.079936 C34.6512343,20.281536 34.7560663,20.235168 34.6834903,20.124288 C34.6352782,20.0136332 34.6267332,19.8897298 34.6592983,19.7735041 C34.7036503,19.6122241 34.8125143,19.5900481 34.7076823,19.4166721 C34.6502797,19.3362685 34.5617948,19.2836163 34.4637464,19.2715201 C34.4092438,19.2515363 34.3487719,19.2560166 34.2978094,19.2838144 C34.2468469,19.3116121 34.2103405,19.360029 34.1976344,19.4166721 C34.1028824,19.6182721 34.2399704,19.6404481 34.3367384,19.7916481 C34.4730824,20.0281586 34.5182537,20.3063567 34.4637464,20.573856 C34.3851224,20.8359359 34.1270744,21.0617279 34.0081304,21.3197759 C33.9657944,21.4084799 33.7944345,21.6806398 33.8287065,21.7814398 C33.9133784,22.0233598 34.0746584,21.7108798 34.1089304,21.6443518 C34.2500504,21.3863039 34.3105304,21.1040639 34.6068824,20.9891519 C34.8427543,20.9024639 35.0100823,21.0778559 35.1794263,21.2673599 C35.3024023,21.4024319 35.5584342,21.8157118 35.7539862,21.4689598 C35.9192982,21.1786559 35.5644822,21.1705919 35.4112662,21.1121279 C35.1310423,21.0032639 35.0443543,20.8117439 35.3225623,20.7089279 C35.5469878,20.6039334 35.7985635,20.5715175 36.0422742,20.616192 C36.2075861,20.664576 36.5966741,20.7815039 36.5240981,20.426688 Z" id="Path" fill="url(#linearGradient-1)" fill-rule="nonzero"></path>
                    <path d="M32.3550107,23.5010876 C32.4376666,23.7792955 32.6432986,23.3216636 32.6574106,23.2873916 C32.7635866,23.0454716 32.8623706,22.7995197 32.9537626,22.5495357 C33.1314168,22.0763674 33.2229086,21.5752108 33.2239065,21.0697919 C33.2001942,20.0820469 32.8240828,19.135333 32.1634907,18.4006083 C32.0788187,18.3058563 31.9356827,18.0720003 31.7864987,18.1405443 C31.6373148,18.2090883 31.8167387,18.5135042 31.8389147,18.5981762 C31.9805529,19.1111187 32.0617439,19.6388601 32.0808347,20.170656 C32.0929307,20.7311039 32.0082587,21.2814719 32.0001947,21.8399038 C31.9901147,22.4305917 32.1917147,22.9426556 32.3550107,23.5010876 Z" id="Path" fill="url(#linearGradient-2)" fill-rule="nonzero"></path>
                    <path d="M31.2058908,25.5453113 C31.5144321,24.7686993 31.5914547,23.9193498 31.4276508,23.0999036 C31.3463541,22.700796 31.2344719,22.3085345 31.0929948,21.9265918 C30.9498589,21.5112958 30.8127709,21.7753918 30.7946269,22.0959358 C30.7401949,23.0132156 30.6111709,23.9224315 30.5224669,24.8376954 C30.4982709,25.0453128 30.4982709,25.2550379 30.5224669,25.4626553 C30.5287911,25.6818889 30.5633479,25.899393 30.6252829,26.1097912 C30.8792989,26.5250872 31.1312988,25.7227193 31.2058908,25.5453113 Z M30.7825309,24.5473914 C30.8712349,23.8901755 30.8672029,23.2047356 31.0063068,22.5575997 C31.4881308,23.4123836 31.3772508,24.9606714 30.8571229,25.7731193 C30.7256943,25.3780585 30.6999778,24.9554741 30.7825309,24.5473914 Z" id="Shape" fill="url(#linearGradient-3)" fill-rule="nonzero"></path>
                    <path d="M33.9214424,26.0130232 C33.8569305,25.9787512 33.6875865,26.0130232 33.6089625,26.0130232 C33.3330684,25.9948819 33.0562807,25.9948819 32.7803866,26.0130232 C32.2005961,26.0762738 31.6460047,26.2842456 31.1675868,26.6178231 C30.8913949,26.8012791 30.8047069,26.9726391 31.1917788,26.9665911 C31.4858392,26.9767338 31.7801925,26.9585055 32.0707547,26.9121591 C32.7299866,26.7791031 33.3105945,26.4908152 33.9375704,26.2589752 C34.1048984,26.1863992 34.0242584,26.0674552 33.9214424,26.0130232 Z M31.4437788,26.7407991 C31.9789325,26.3248379 32.6592804,26.1423942 33.3307545,26.2347832 C32.7436853,26.5325546 32.1010671,26.7048806 31.4437788,26.7407991 L31.4437788,26.7407991 Z" id="Shape" fill="url(#linearGradient-4)" fill-rule="nonzero"></path>
                    <path d="M34.3508504,23.6301116 C34.1028824,23.5716476 34.0827224,23.8740475 33.9295064,23.9546875 C33.5471298,24.1807502 33.2062184,24.4705249 32.9215066,24.8114874 C32.4537946,25.3396793 33.0888346,25.1804153 33.4335705,25.1038073 C33.6996825,25.0473594 34.3710104,25.2146873 34.1936024,24.7006074 C34.0948184,24.4223994 33.9395864,24.5816634 33.7904025,24.7006074 C33.6092861,24.8302668 33.3940751,24.9038732 33.1714905,24.9122874 C33.3519445,24.707456 33.5548138,24.5235211 33.7762905,24.3639355 C33.9597464,24.2268475 34.2802904,24.2107195 34.4193944,24.0595195 C34.5584984,23.9083195 34.5645464,23.6784955 34.3508504,23.6301116 Z" id="Path" fill="url(#linearGradient-5)" fill-rule="nonzero"></path>
                    <path d="M33.3126105,24.1381435 C33.6547676,23.9720765 33.9305128,23.6949099 34.0948184,23.3519036 C34.176546,23.1369255 34.2320507,22.9128762 34.2601304,22.6846077 C34.2722264,22.4830077 34.2601304,22.4830077 34.0585304,22.5213117 C33.6491747,22.7794958 33.3175253,23.143892 33.0989146,23.5756796 C33.0223066,23.7067195 32.8287706,23.9425915 32.8973146,24.0937915 C32.9658586,24.2449915 33.1714905,24.2026555 33.3126105,24.1381435 Z M33.9557144,22.8882237 C34.1432024,23.1865916 33.4617945,23.9546875 33.1674585,23.9345275 C33.2118105,23.8317115 33.8891865,22.7854077 33.9557144,22.8882237 L33.9557144,22.8882237 Z" id="Shape" fill="url(#linearGradient-6)" fill-rule="nonzero"></path>
                    <path d="M27.5932193,30.8534386 C27.6980513,30.5913586 28.1536672,29.0390388 27.5609633,29.3333748 C27.2363874,29.4966708 26.9319714,29.8998707 26.7041634,30.1760627 C26.4532809,30.4812486 26.2197295,30.8002785 26.0046115,31.1316465 C25.789759,31.4616083 25.606821,31.811283 25.4582756,32.1759344 C25.3252196,32.5065583 25.2002276,32.7908143 24.8151717,32.8754863 C24.8333157,32.7283183 25.0167717,32.2706864 24.8413797,32.1678704 C24.6659877,32.0650544 24.4381797,32.3472944 24.3353638,32.4541423 C24.0214296,32.8249935 23.836111,33.2875828 23.8071718,33.7726062 C23.8071718,33.8451822 23.8394278,33.9439661 23.9220838,33.9540461 C24.0390118,33.9661421 24.0349798,33.8391342 24.1055398,33.7826862 C24.2426278,33.6738222 24.5772837,33.3169902 24.7385637,33.2766702 C24.9401637,33.2262702 25.2728036,33.3794862 25.5006116,33.3815022 C25.7779376,33.3806357 26.0541333,33.3461113 26.3231395,33.2786862 C26.5875094,33.2177777 26.8387933,33.1098896 27.0650274,32.9601583 C27.1920354,32.8754863 27.5932193,32.6033263 27.5952353,32.4501103 C27.5952353,32.1215024 26.3412835,32.3855984 26.1054115,32.4077744 C26.6174754,31.9400624 27.3230753,31.5328305 27.5932193,30.8534386 Z M24.1156198,33.5085102 C24.1942438,32.9783023 24.3494757,32.6779183 24.6397797,32.5005103 C24.6558187,32.9056079 24.4564601,33.2889899 24.1156198,33.5085102 L24.1156198,33.5085102 Z M25.6397156,32.4118064 C25.7425316,31.8412784 26.1457315,31.2929265 26.4783715,30.8352946 C26.8110114,30.3776626 27.1517154,29.8857587 27.6093473,29.5934387 C27.6859553,30.9159346 26.6456994,31.7666864 25.6376996,32.4118064 L25.6397156,32.4118064 Z" id="Shape" fill="url(#linearGradient-7)" fill-rule="nonzero"></path>
                    <path d="M24.0027238,35.8430379 C23.7386278,35.9478699 23.1076199,35.6918379 22.85562,35.5789419 C22.60362,35.4660459 22.686276,35.5527339 22.766916,35.4479019 C22.8576661,35.3679987 22.9727566,35.32111 23.0935079,35.314846 C23.2588199,35.314846 23.3132519,35.4055659 23.4463079,35.250334 C23.5052588,35.1712497 23.5279654,35.0709013 23.5088039,34.974142 C23.4785639,34.82899 23.4321959,34.772542 23.2890599,34.772542 C23.0632679,34.746334 23.0874599,34.881406 22.9745639,35.02051 C22.7936025,35.225442 22.5427383,35.3555463 22.27098,35.3854059 C21.9988201,35.3854059 21.7024681,35.220094 21.4202281,35.183806 C21.3234602,35.183806 21.0170282,35.095102 20.9263082,35.159614 C20.7247082,35.314846 21.0694442,35.361214 21.1440362,35.3833899 C21.4323241,35.4358059 21.7165801,35.3954859 21.9222121,35.6515179 C22.0774441,35.8531179 21.9645481,36.0547179 21.8375401,36.2825258 C21.7448041,36.4397738 21.4343401,36.8127338 21.8193961,36.8873257 C22.148004,36.9538537 22.0431721,36.6131498 22.0532521,36.4498538 C22.0693801,36.1494698 22.222596,36.0083499 22.410084,36.2482538 C22.5800453,36.4279073 22.6893406,36.6563695 22.722564,36.9014377 C22.722564,37.0748137 22.736676,37.4840617 23.0511719,37.3046377 C23.4362279,37.0828777 22.387908,35.8934379 22.216548,35.6575659 C22.436292,35.6676459 22.867716,35.7462699 23.0229479,35.9176299 C23.1781799,36.0889899 23.1963239,36.4639658 23.2890599,36.6837098 C23.3817959,36.9034537 23.8474918,36.9276457 23.7970918,36.5869418 C23.7789478,36.4538858 23.6660518,36.4619498 23.5793639,36.3853418 C23.4665453,36.2608793 23.3659546,36.1258581 23.2789799,35.9821419 C23.4453448,36.0053428 23.6067623,36.0557432 23.7567718,36.1313258 C23.8857958,36.1998698 24.0188518,36.3470378 24.1740838,36.3208298 C24.5369637,36.2462378 24.3152038,35.7261099 24.0027238,35.8430379 Z" id="Path" fill="url(#linearGradient-8)" fill-rule="nonzero"></path>
                    <path d="M19.1260205,34.5165101 C19.3901164,34.5427181 19.6542124,34.5608621 19.9203244,34.5669101 C20.4249826,34.5891301 20.9295445,34.5208538 21.4101482,34.3653101 C22.3444361,34.0340179 23.129055,33.3788575 23.6216998,32.5186543 C23.6862118,32.4097904 23.8616038,32.2001264 23.7507238,32.0791664 C23.6398438,31.9582064 23.4039719,32.2263344 23.3334119,32.2807664 C22.8924584,32.5750265 22.4189023,32.8172166 21.9222121,33.0024943 C21.3940202,33.1899822 20.8436522,33.2807022 20.3094123,33.4480302 C19.7449324,33.6234222 19.3215724,33.9742061 18.8417645,34.3048301 C18.5817005,34.4620781 19.0877165,34.5165101 19.1260205,34.5165101 Z M22.45242,33.0287023 C22.730628,32.8916143 22.9967399,32.7303343 23.2709159,32.5871983 C22.444356,33.9701741 20.8134122,34.5467501 19.2651244,34.3007981 C20.1703083,33.5085102 21.4041002,33.5387502 22.45242,33.0287023 Z" id="Shape" fill="url(#linearGradient-9)" fill-rule="nonzero"></path>
                    <path d="M28.3048672,34.4862701 C27.5089961,34.1596008 26.6608881,33.9786438 25.8009956,33.9520301 C25.6040027,33.962986 25.4083626,33.9913201 25.2163556,34.0367021 C25.0611237,34.0608941 24.7567077,34.0367021 24.6276837,34.1495981 C24.4583397,34.3048301 24.6155877,34.3511981 24.7728357,34.4681261 C24.9670673,34.6132632 25.1689584,34.7478572 25.3776356,34.871326 C26.2183075,35.32291 27.1295394,35.32291 28.0568992,35.32291 C28.2584992,35.32291 29.1052191,35.4015339 29.1979551,35.167678 C29.3209311,34.861246 28.4701792,34.5507821 28.3048672,34.4862701 Z" id="Path" fill="url(#linearGradient-10)" fill-rule="nonzero"></path>
                    <path d="M19.9283884,32.6053423 C20.2791723,32.3392304 19.9848363,32.2928624 19.6763884,32.3735024 C18.7853165,32.6093743 17.8821486,32.7767023 16.9850288,32.9783023 C16.5697996,33.0784438 16.1735543,33.2452481 15.8117169,33.4722222 C15.491173,33.8371182 16.3358768,33.8310702 16.5273968,33.8471982 C17.3616534,33.8978611 18.1927461,33.7060167 18.9203885,33.2948142 C19.2731818,33.0905596 19.6101301,32.8600869 19.9283884,32.6053423 L19.9283884,32.6053423 Z" id="Path" fill="url(#linearGradient-11)" fill-rule="nonzero"></path>
                    <path d="M16.5334448,35.32291 C16.2911811,34.7886667 15.9181524,34.3241142 15.448837,33.9721901 C15.186757,33.7705902 14.999269,33.7383342 15.124261,34.1052461 C15.2078225,34.3836134 15.3171598,34.6535821 15.450853,34.911646 C15.7834929,35.4983019 16.2391089,35.9599659 16.6604528,36.4821098 C16.7753648,36.6252458 16.8620528,36.5163818 16.8862448,36.4034858 C16.8983408,36.3309098 16.8096368,36.1797098 16.7874608,36.1051179 C16.7187099,35.8394777 16.6338816,35.5782604 16.5334448,35.32291 Z M15.414565,34.2846701 C15.9766961,34.6632129 16.3620212,35.252833 16.4830448,35.9196459 C16.0171907,35.4547828 15.6532988,34.8979596 15.414565,34.2846701 L15.414565,34.2846701 Z" id="Shape" fill="url(#linearGradient-12)" fill-rule="nonzero"></path>
                    <path d="M18.8921645,35.9277099 C18.557,35.6369494 18.1753688,35.4045633 17.7632046,35.240254 C17.1160687,34.962046 17.4668527,35.5164459 17.6442607,35.8208619 C17.7833646,36.0527019 17.8337646,36.7441898 18.2611566,36.4155818 C18.4970285,36.2361578 18.2974446,36.1373738 18.1422126,36.0345579 C17.9628721,35.9036163 17.8261289,35.7226945 17.7490926,35.5144299 C18.0005933,35.6206103 18.2387659,35.7559356 18.4587246,35.9176299 C18.6482285,36.0486699 18.7611245,36.3470378 18.9506285,36.4317098 C19.1401325,36.5163818 19.3538284,36.4438058 19.3316524,36.2301098 C19.3094764,35.9781099 19.0151405,36.0527019 18.8921645,35.9277099 Z" id="Path" fill="url(#linearGradient-13)" fill-rule="nonzero"></path>
                    <path d="M18.9849005,35.018494 C18.8357165,34.986238 18.5534765,34.877374 18.4345326,34.998334 C18.3155886,35.119294 18.4163886,35.290654 18.5192045,35.4015339 C18.7845141,35.6738699 19.1340219,35.8486238 19.5110764,35.8974699 C19.7415132,35.9084237 19.97242,35.8908179 20.1985323,35.8450539 C20.4001323,35.7926379 20.3880363,35.7744939 20.2872363,35.5970859 C19.9137448,35.2894969 19.4635122,35.089471 18.9849005,35.018494 L18.9849005,35.018494 Z M19.9082284,35.6232939 C19.6844524,35.8934379 18.7429805,35.4882219 18.6704045,35.199934 C18.7833005,35.214046 19.9929003,35.5245099 19.9102444,35.6253099 L19.9082284,35.6232939 Z" id="Shape" fill="url(#linearGradient-14)" fill-rule="nonzero"></path>
                    <path d="M28.5508192,30.8554546 C28.3492192,30.9179506 27.8250593,31.4159025 28.0831072,31.6376625 C28.3411552,31.8594224 28.8229791,31.6275825 29.0366751,31.4864625 C29.2060191,31.3755825 29.742275,31.0832625 29.623331,30.8352946 C29.490275,30.5651506 28.7443552,30.7969906 28.5508192,30.8554546 Z M28.4802592,31.4421105 C28.1657632,31.4421105 28.4701792,31.1759985 28.5971872,31.1054385 C28.8149151,30.9824625 29.0810271,30.9945585 29.3189151,30.9421426 C29.0648991,31.1558385 28.8391071,31.4340465 28.4802592,31.4421105 Z" id="Shape" fill="url(#linearGradient-15)" fill-rule="nonzero"></path>
                    <path d="M10.4068216,32.0973104 C10.6870456,32.1134384 12.3038774,32.0610224 11.8401975,31.5912945 C11.5841655,31.3332465 11.1043576,31.1699505 10.7717176,31.0409265 C10.4032473,30.8981517 10.0269988,30.7763253 9.64477375,30.6760306 C9.26427393,30.5740813 8.8746419,30.5099305 8.48154191,30.4845106 C8.12470996,30.4603186 7.816262,30.4320946 7.61466203,30.0934067 C7.76183001,30.0631667 8.24970194,30.0934067 8.29606994,29.8918067 C8.34243793,29.6902067 7.99971798,29.5631987 7.864646,29.5007028 C7.41597082,29.3203854 6.92116912,29.2892836 6.45344619,29.4119988 C6.3788542,29.4261108 6.30023021,29.4966708 6.31635821,29.5773107 C6.3405502,29.6942387 6.46151019,29.6498867 6.53610218,29.6982707 C6.68125416,29.7950387 7.1267901,30.0006707 7.21549408,30.1417907 C7.32839007,30.3212146 7.28403807,30.6800626 7.35459807,30.8957746 C7.44103072,31.1596176 7.56023414,31.4115703 7.70941402,31.6457265 C7.84980264,31.8777191 8.03076175,32.0825785 8.24365394,32.2505264 C8.36461393,32.3432624 8.74765388,32.6396143 8.89482186,32.5932463 C9.20730181,32.4924463 8.5621819,31.3836465 8.46944591,31.1639025 C9.06819783,31.5046065 9.67702975,32.0489264 10.4068216,32.0973104 Z M6.79616614,29.6256947 C7.32435807,29.5349747 7.65699802,29.5894067 7.91706199,29.8071347 C7.53679412,29.9496653 7.10935148,29.8781686 6.79616614,29.6196467 L6.79616614,29.6256947 Z M8.47347791,31.6719345 C8.52387791,31.7828144 8.76982987,32.1557744 8.60451789,32.2323824 C8.43920592,32.3089904 8.14285396,31.8695024 8.07430997,31.7848304 C7.78199001,31.4199345 7.38483806,30.8211826 7.49975005,30.3212146 C7.90040358,30.7090991 8.22996632,31.1642095 8.47347791,31.6658865 L8.47347791,31.6719345 Z" id="Shape" fill="url(#linearGradient-16)" fill-rule="nonzero"></path>
                    <path d="M5.00797438,29.0087988 C4.75674136,28.9001995 4.55434117,28.7028234 4.43946246,28.4543989 C4.34874247,28.1983669 4.42131846,27.863711 4.36285447,27.585503 C4.34269448,27.488735 4.32051848,27.1681911 4.23383049,27.1077111 C4.02013452,26.9625591 4.07658251,27.309311 4.08867851,27.383903 C4.1289985,27.674207 4.25600649,27.932255 4.07658251,28.2064309 C3.93949453,28.4080309 3.70160656,28.3757749 3.4516226,28.3233589 C3.27219862,28.2870709 2.82061468,28.1076469 2.86899868,28.4987509 C2.90730267,28.8293748 3.19760663,28.6257589 3.35485461,28.5834229 C3.64717457,28.5027829 3.82861455,28.6055989 3.66733457,28.8555828 C3.55003056,29.0733713 3.36742681,29.2489247 3.14519064,29.3575668 C2.97987866,29.4180468 2.59683871,29.5591667 2.86899868,29.7950387 C3.19962263,30.0893747 3.99191052,28.7265589 4.1713345,28.4846389 C4.22979849,28.6983349 4.29027848,29.1337908 4.1713345,29.3374068 C4.05239052,29.5410227 3.70765456,29.6720627 3.52823059,29.8313267 C3.34880661,29.9905907 3.46976659,30.4361266 3.78023055,30.2829106 C3.89917454,30.2244467 3.85683854,30.1196147 3.89917454,30.0127667 C3.98434567,29.8693813 4.08289714,29.7343793 4.1935105,29.6095667 C4.22073596,29.7744343 4.22073596,29.9426511 4.1935105,30.1075187 C4.1713345,30.2506546 4.07255051,30.4240306 4.1451265,30.5651506 C4.31648648,30.8856946 4.74992642,30.5087026 4.53018245,30.2526706 C4.34874247,30.0349427 4.39309447,29.3535348 4.42333446,29.0793588 C4.45357446,28.8051828 4.39511047,28.9100148 4.51808645,28.9543668 C4.62301368,29.0158648 4.70402157,29.1110846 4.74791042,29.2245108 C4.80637441,29.3797428 4.73178242,29.4623988 4.9212864,29.5390067 C5.01453591,29.5691565 5.1161461,29.5589223 5.20151036,29.5107827 C5.25689741,29.494266 5.30253157,29.4547715 5.32682534,29.4023278 C5.35111912,29.3498841 5.35173563,29.2895359 5.32851834,29.2366068 C5.29424635,29.0067828 5.17530236,29.0733108 5.00797438,29.0087988 Z" id="Path" fill="url(#linearGradient-17)" fill-rule="nonzero"></path>
                    <path d="M8.03600597,28.8192948 C8.11059796,28.6862389 7.78803801,28.5350389 7.72151002,28.4826229 C7.30179692,28.1546338 6.92278906,27.7776563 6.59255017,27.359711 C6.24781422,26.9182071 5.98775025,26.4242872 5.6651903,25.9706872 C5.34263034,25.5170873 4.85879041,25.1965433 4.39107847,24.8457594 C4.1592385,24.6703674 4.26608649,25.1602553 4.27415048,25.1985593 C4.33261448,25.4566073 4.39914247,25.7126393 4.47575046,25.9666552 C4.87569611,27.4367502 6.07947269,28.5497347 7.57635804,28.8334068 C7.69530202,28.8596148 7.95536598,28.9624308 8.03600597,28.8192948 Z M4.52211845,25.2630713 C5.55027831,25.8678712 5.92122226,27.0613431 6.73971815,27.883871 C6.95543012,28.1056309 7.19130209,28.3072309 7.41306206,28.5229429 C5.83251827,28.1782069 4.77411842,26.8093431 4.52211845,25.2630713 Z" id="Shape" fill="url(#linearGradient-18)" fill-rule="nonzero"></path>
                    <path d="M6.63690216,30.8312626 C6.56634217,30.6921586 6.49578218,30.3917746 6.3465982,30.3071026 C6.14499823,30.1942067 6.14499823,30.3615346 6.08855024,30.5449906 C6.01338539,30.7761216 5.95013418,31.0109586 5.89904626,31.2485745 C5.72768629,32.1860144 6.02202225,33.0488623 6.30224621,33.9338861 C6.3607102,34.1193581 6.55626217,34.953982 6.80826214,34.968094 C7.14090209,34.986238 7.17114209,34.0830701 7.17920609,33.9056622 C7.24015501,33.0472388 7.14660934,32.1848433 6.90301413,31.3594545 C6.83142242,31.175278 6.74230941,30.9984022 6.63690216,30.8312626 L6.63690216,30.8312626 Z" id="Path" fill="url(#linearGradient-19)" fill-rule="nonzero"></path>
                    <path d="M5.37488633,24.6179514 C5.67778602,24.8904955 6.00131067,25.139205 6.3425662,25.3618553 C6.70343015,25.6098233 6.65706216,25.3175033 6.48167018,25.0493754 C5.97968625,24.2772475 5.54221431,23.4708476 5.07047038,22.6825917 C4.96688743,22.500709 4.84239431,22.3315607 4.69952643,22.1785917 C4.56373881,22.0067599 4.40656354,21.852972 4.23181449,21.7209598 C3.78627855,21.5334718 4.05440651,22.3257597 4.10077451,22.5273597 C4.31447636,23.3327286 4.75703621,24.0588908 5.37488633,24.6179514 L5.37488633,24.6179514 Z M5.03418238,23.0696636 C5.35271034,23.6502715 5.76397428,24.1986235 6.04218224,24.8034234 C5.14506237,24.4002234 4.31447048,23.0918396 4.24794249,22.1281918 C4.58787887,22.3678219 4.85898643,22.6924558 5.03418238,23.0696636 Z" id="Shape" fill="url(#linearGradient-20)" fill-rule="nonzero"></path>
                    <path d="M13.4348532,32.9137903 C13.1364853,32.7867823 13.2614773,32.4017264 12.9147253,32.3089904 C12.5679734,32.2162544 12.2313014,32.5811503 12.0680054,32.8472623 C11.7091575,33.4339182 11.9974454,34.4822381 12.5820854,34.831006 C12.8139253,35.02051 13.3078453,35.250334 13.6162932,35.143486 C13.7621235,35.092249 13.8771596,34.9781148 13.929543,34.8326924 C13.9819263,34.6872699 13.9660964,34.5259958 13.8864372,34.3935341 C13.8239412,34.2645101 13.7453172,34.1919341 13.7856372,34.0588781 C13.8259572,33.9258221 13.9872372,33.8290542 14.0235252,33.6556782 C14.0961011,33.2222382 13.7614452,33.0528943 13.4348532,32.9137903 Z M13.5598452,33.9661421 C13.2433333,34.2907181 13.7070132,34.2665261 13.7191092,34.6294061 C13.7312052,34.992286 13.3159093,34.945918 13.0800373,34.853182 C12.91077,34.7916296 12.7512209,34.7060842 12.6062773,34.5991661 C12.4449974,34.4721581 12.4046774,34.4399021 12.4389494,34.2423341 C12.4913654,33.8552622 12.4530614,33.7927662 12.2151734,33.4823022 C12.0135734,33.2101422 12.2897654,32.8291183 12.5417654,32.6557423 C12.6586933,32.5751023 12.8018293,32.4984943 12.9308533,32.6073583 C13.0598773,32.7162223 12.9812533,32.8371823 13.0114933,32.9662063 C13.0618933,33.1799022 13.0457653,33.0932143 13.2473653,33.1274863 C13.3732017,33.1364175 13.4940211,33.1804153 13.5961332,33.2544942 C13.9146612,33.5085102 13.7876532,33.7302702 13.5598452,33.9661421 L13.5598452,33.9661421 Z" id="Shape" fill="url(#linearGradient-21)" fill-rule="nonzero"></path>
                    <path d="M2.85690268,22.9426556 C3.28892975,22.5462546 3.61351829,22.0468876 3.80039055,21.4911358 C3.91328653,21.1766399 3.88103054,20.9891519 3.57258258,21.2230079 C3.33133223,21.3901025 3.10654167,21.5797907 2.90125467,21.7895038 C2.44967073,22.2894717 2.15331877,22.8660477 1.78842282,23.4244796 C1.68762284,23.5776956 1.81866282,23.6260796 1.9315588,23.6119676 C2.00615079,23.6119676 2.12106278,23.4708476 2.18355877,23.4264956 C2.41836194,23.2801378 2.64329445,23.1185097 2.85690268,22.9426556 L2.85690268,22.9426556 Z M3.49395859,21.5556478 C3.31160717,22.2064237 2.87588557,22.7568853 2.28435876,23.0837756 C2.57585453,22.4957218 2.98720089,21.9751867 3.49194259,21.5556478 L3.49395859,21.5556478 Z" id="Shape" fill="url(#linearGradient-22)" fill-rule="nonzero"></path>
                    <path d="M2.85690268,25.4183033 C3.02844906,25.0094455 3.12999395,24.5746426 3.15728664,24.1320955 C3.21776663,23.4285116 2.80247069,23.9304955 2.56861472,24.2006395 C2.39120674,24.4022394 1.75011883,24.6703674 2.19767077,24.9727674 C2.44160673,25.1400953 2.47386273,24.9183354 2.52224672,24.7409274 C2.58999638,24.5287942 2.71907603,24.3414884 2.89319067,24.2026555 C2.8704508,24.4769121 2.81564493,24.7475584 2.7298947,25.0090554 C2.6653827,25.2287993 2.41741474,25.4303993 2.39523874,25.6360313 C2.37306274,25.8416632 2.51015073,26.0210872 2.7097347,25.9343992 C2.94560667,25.8295673 2.78231069,25.5735353 2.85690268,25.4183033 Z" id="Path" fill="url(#linearGradient-23)" fill-rule="nonzero"></path>
                    <path d="M3.60080658,24.6945594 C3.4274306,24.6078714 3.31856662,24.7671354 3.24195863,24.8961594 C3.06577122,25.2329854 3.00891988,25.6195745 3.08067865,25.9928632 C3.14224307,26.2146043 3.23094588,26.4278973 3.34477461,26.6279031 C3.4596866,26.8032951 3.47178259,26.7871671 3.60887058,26.6279031 C3.78505607,26.1795456 3.83525116,25.6915378 3.75402256,25.2167033 C3.73789456,25.0715514 3.75402256,24.7691514 3.60080658,24.6945594 Z" id="Path" fill="url(#linearGradient-24)" fill-rule="nonzero"></path>
                    <path d="M9.81411773,32.8008943 C9.69315775,33.0952303 10.0560377,33.5004462 10.2576377,33.6617262 C10.4148856,33.7867182 10.8624376,34.2020141 11.0640376,34.0145261 C11.2656375,33.8270382 10.8241336,33.1678063 10.7072056,33.0065263 C10.5902776,32.8452463 9.94314171,32.4884143 9.81411773,32.8008943 Z M10.1245817,33.1174063 C10.0197497,32.8230703 10.3745657,33.0246703 10.4814136,33.1174063 C10.6668856,33.2847342 10.7374456,33.5427822 10.8624376,33.7504302 C10.5801976,33.5871342 10.2455417,33.4560942 10.1245817,33.1174063 Z" id="Shape" fill="url(#linearGradient-25)" fill-rule="nonzero"></path>
                    <path d="M14.2795571,34.2100781 C14.2140572,34.1774583 14.134501,34.1994924 14.0951156,34.2611616 C14.0557303,34.3228308 14.0691989,34.4042758 14.1263411,34.4499821 C14.2876211,34.5548141 14.4851891,34.3149101 14.2795571,34.2100781 Z" id="Path" fill="url(#linearGradient-26)" fill-rule="nonzero"></path>
                    <path d="M13.5921012,32.4884143 C13.4812212,32.3614064 13.2715573,32.5589743 13.3905012,32.6779183 C13.5215412,32.7565423 13.7029812,32.6134063 13.5921012,32.4884143 Z" id="Path" fill="url(#linearGradient-27)" fill-rule="nonzero"></path>
                    <path d="M2.93552667,20.251296 C2.88714267,20.434752 3.17744663,20.549664 3.20970263,20.31984 C3.22194683,20.2708632 3.20713212,20.2190745 3.17083906,20.1839823 C3.13454599,20.1488901 3.08228835,20.1358257 3.03375108,20.1497103 C2.98521381,20.163595 2.94777087,20.2023192 2.93552667,20.251296 Z" id="Path" fill="url(#linearGradient-28)" fill-rule="nonzero"></path>
                    <path d="M30.000323,27.623807 C29.609219,27.422207 29.3410911,27.678239 29.1052191,27.942335 C28.8693471,28.2064309 28.5649312,27.942335 28.3754272,28.2427189 C28.1859232,28.5431029 28.4157472,28.9805748 28.6153312,29.2184628 C29.0548191,29.7466547 30.139427,29.8071347 30.6595549,29.3676468 C30.9115549,29.2063668 31.2865308,28.8132468 31.2865308,28.4886709 C31.2838434,28.3340981 31.2122708,28.1888004 31.0913615,28.092463 C30.9704521,27.9961255 30.812839,27.9588139 30.6615709,27.990719 C30.5184349,28.008863 30.4196509,28.0592629 30.3128029,27.978623 C30.205955,27.897983 30.159587,27.708479 30.000323,27.623807 Z M30.141443,28.1620789 C30.3430429,28.5652789 30.4760989,28.1177269 30.8228509,28.2225589 C31.1696028,28.3273909 30.9921948,28.7023669 30.8228509,28.8979188 C30.7112867,29.0394147 30.5795069,29.1637224 30.4317469,29.2668468 C30.2603869,29.3777268 30.216035,29.3978868 30.040643,29.3111988 C29.689859,29.1378228 29.617283,29.1539508 29.2483551,29.2789428 C28.9217631,29.3898228 28.6435552,28.9987188 28.5689632,28.7063989 C28.5306592,28.5693109 28.5044512,28.4100469 28.6475872,28.3213429 C28.7907231,28.2326389 28.8814431,28.3475509 29.0124831,28.3596469 C29.2322271,28.3798069 29.1455391,28.3596469 29.2423071,28.1882869 C29.2902813,28.0719435 29.3698997,27.9713728 29.4721311,27.897983 C29.816867,27.676223 29.992259,27.863711 30.141443,28.1620789 Z" id="Shape" fill="url(#linearGradient-29)" fill-rule="nonzero"></path>
                    <path d="M30.7825309,27.779039 C30.9317149,27.660095 30.7684189,27.393983 30.6051229,27.557279 C30.5438856,27.6062689 30.533957,27.6956257 30.5829469,27.756863 C30.6319368,27.8181003 30.7212935,27.8280288 30.7825309,27.779039 Z" id="Path" fill="url(#linearGradient-30)" fill-rule="nonzero"></path>
                    <path d="M28.8632991,27.899999 C28.9761951,27.809279 28.8975711,27.591551 28.7443552,27.656063 C28.5911392,27.720575 28.7161312,27.984671 28.8632991,27.899999 Z" id="Path" fill="url(#linearGradient-31)" fill-rule="nonzero"></path>
                    <text id="P" fill="url(#linearGradient-32)" font-family="EutemiaI-Italic, Eutemia I" font-size="20.1599973" font-style="italic" font-weight="normal">
                        <tspan x="11.0297656" y="29.1974412">P</tspan>
                    </text>
                    <path d="M31.8248027,14.0984648 C31.6090908,13.9190409 30.2785309,12.999745 30.3732829,13.6549449 C30.4236829,14.0137929 30.7139869,14.4290888 30.9034909,14.7314888 C31.1149275,15.0654706 31.3451204,15.3872024 31.5929628,15.6951366 C31.8382026,16.0028441 32.1130212,16.2857654 32.4134747,16.5398405 C32.6876506,16.7716805 32.9174746,16.9793285 32.8791706,17.3704324 C32.7420826,17.3079364 32.3650907,16.9954565 32.2138907,17.1244804 C32.0626907,17.2535044 32.2562267,17.5639684 32.3267867,17.6950084 C32.5822776,18.1075649 32.9630407,18.4275754 33.4134105,18.6082562 C33.4842072,18.64418 33.570677,18.6216978 33.6150105,18.5558402 C33.6654105,18.4489923 33.5424345,18.4127043 33.5121945,18.3280323 C33.4517145,18.1627203 33.2158425,17.7333124 33.2279385,17.5680004 C33.2460825,17.3563204 33.4920345,17.0942404 33.5646105,16.8785285 C33.650887,16.6172671 33.7050452,16.3464762 33.7258905,16.0721286 C33.751273,15.8012732 33.7273668,15.5280599 33.6553305,15.2657287 C33.6150105,15.1205767 33.4819545,14.6609288 33.3368025,14.6024648 C33.0243226,14.4976328 32.8832026,15.7737606 32.8287706,16.0136646 C32.5525786,15.3645127 32.3872667,14.5681928 31.8248027,14.0984648 Z M31.4599068,15.1629127 C31.1474268,14.7314888 30.7664029,14.2254728 30.6333469,13.6992969 C31.9135067,14.0420169 32.3993627,15.2858887 32.6936986,16.4531525 C32.1856667,16.1709126 31.7905307,15.6124806 31.4599068,15.1629127 Z M33.1271386,15.6003846 C33.1513306,15.4814407 33.1755225,15.0338887 33.3549465,15.0701767 C33.5343705,15.1064647 33.5101785,15.6386886 33.5142105,15.7475526 C33.5323545,16.2132486 33.4960665,16.9329605 33.1110106,17.2656004 C33.0173764,16.7106006 33.0228368,16.1433989 33.1271386,15.5903046 L33.1271386,15.6003846 Z M33.2601945,18.2413443 C32.7803866,18.0014403 32.5445146,17.7615364 32.4658906,17.4349444 C32.851969,17.5427516 33.1533663,17.8449139 33.2601945,18.2312643 L33.2601945,18.2413443 Z" id="Shape" fill="url(#linearGradient-33)" fill-rule="nonzero"></path>
                    <path d="M34.3770584,17.9087043 C34.5761627,17.7682285 34.7673055,17.616795 34.9496023,17.4551044 C35.6451222,16.8039365 35.9213142,15.9350406 36.2196821,15.0580807 C36.2841941,14.8726087 36.6228821,14.0863689 36.4212821,13.9250889 C36.1632341,13.7113929 35.6027862,14.4210248 35.4919062,14.5581128 C34.9318693,15.2139899 34.4941703,15.9651113 34.1996504,16.7757125 C34.1480017,16.9663624 34.1142554,17.1614159 34.0988504,17.3583364 C34.0726424,17.5135684 33.9516824,17.7958083 34.0222424,17.9530563 C34.1230424,18.1566723 34.2258584,18.0236163 34.3770584,17.9087043 Z M34.8850903,15.7515846 C35.0080663,15.5338567 35.9495382,14.0762889 36.1874261,14.2073288 C36.3890261,14.3141768 35.6672982,16.0217286 35.5564182,16.2535686 C35.4253037,16.5341472 35.2571486,16.7958725 35.0564503,17.0317444 C34.9193623,17.1910084 34.5181784,17.6849284 34.2742424,17.6365444 C34.3633555,16.9767185 34.5702563,16.3382624 34.8850903,15.7515846 L34.8850903,15.7515846 Z" id="Shape" fill="url(#linearGradient-34)" fill-rule="nonzero"></path>
                    <path d="M29.760419,12.3626891 C29.992259,12.634849 30.4740829,12.5481611 30.7684189,12.4312331 C31.4054748,12.1731851 31.7945627,11.1591372 31.5344988,10.5301453 C31.4578908,10.2418574 31.1998428,9.76406544 30.8873629,9.66528145 C30.7397599,9.61973027 30.5794976,9.6429662 30.4509092,9.72856154 C30.3223208,9.81415689 30.2390379,9.95303762 30.2240989,10.1067854 C30.197891,10.2479054 30.214019,10.3587854 30.107171,10.4374093 C30.000323,10.5160333 29.802755,10.4978893 29.671715,10.6248973 C29.3531871,10.9333453 29.522531,11.2680012 29.701955,11.5744332 C29.881379,11.8808652 29.532611,12.0885131 29.760419,12.3626891 Z M30.2240989,10.6551373 C30.6696349,10.5805453 30.2825629,10.3224974 30.4881949,10.0261454 C30.6938269,9.72979344 30.9982428,10.0100174 31.1353308,10.2277454 C31.2359521,10.3772091 31.3134331,10.5410067 31.3651548,10.7136013 C31.4195868,10.9152013 31.4256348,10.9575373 31.2885468,11.0986573 C31.0163868,11.3788812 31.0103388,11.4534732 31.0163868,11.8425612 C31.0163868,12.1872971 30.5688349,12.3264011 30.2624029,12.3143051 C30.119267,12.3143051 29.960003,12.2860811 29.921699,12.1127051 C29.883395,11.9393291 30.016451,11.8969931 30.068867,11.7760332 C30.155555,11.5744332 30.117251,11.6510412 29.974115,11.5058892 C29.8800201,11.4234024 29.8103006,11.3167315 29.772515,11.1974412 C29.669699,10.8164173 29.899523,10.7075533 30.2240989,10.6551373 Z" id="Shape" fill="url(#linearGradient-35)" fill-rule="nonzero"></path>
                    <path d="M32.7239386,13.8807369 C32.9960986,13.7154249 32.9436826,13.173121 32.8791706,12.925153 C32.8267546,12.723553 32.7078106,12.1187531 32.4437146,12.1651211 C32.1433307,12.2074571 32.1332507,12.987649 32.1272027,13.191265 C32.1211547,13.3948809 32.4336346,14.0541129 32.7239386,13.8807369 Z" id="Path" fill="url(#linearGradient-36)" fill-rule="nonzero"></path>
                    <path d="M30.054755,9.92131342 C29.988227,9.74188944 29.683811,9.81849743 29.790659,10.0241294 C29.8190509,10.0970575 29.9011869,10.1331612 29.974115,10.1047694 C30.0470431,10.0763775 30.0831468,9.99424151 30.054755,9.92131342 L30.054755,9.92131342 Z" id="Path" fill="url(#linearGradient-37)" fill-rule="nonzero"></path>
                    <path d="M29.587043,11.7840972 C29.534627,11.6490252 29.3027871,11.6570892 29.3168991,11.8224012 C29.3310111,11.9877131 29.619299,11.9574731 29.587043,11.7840972 Z" id="Path" fill="url(#linearGradient-38)" fill-rule="nonzero"></path>
                    <path d="M4.71363843,12.2054411 C4.57655044,12.3687371 4.22375049,12.4413131 4.04029452,12.5743691 C3.81531216,12.7388952 3.61209247,12.9312765 3.4354946,13.146913 C3.26031868,13.3525888 3.1237267,13.5882099 3.03229465,13.8424329 C2.98189466,13.9855689 2.82061468,14.4472328 2.91133467,14.5681928 C3.10285464,14.8343047 3.95763853,13.8746889 4.1350465,13.7174409 C3.99795852,14.3968328 3.67338257,15.1447687 3.86087054,15.8523846 C3.93143053,16.1245446 4.48784646,17.6425924 4.78823041,17.0619844 C4.95354239,16.7374085 4.95959039,16.2313926 4.97773439,15.8765766 C5.00091883,15.4817807 5.00091883,15.0859646 4.97773439,14.6911688 C4.95555846,14.2985481 4.89547088,13.9089915 4.79831041,13.5279369 C4.70759043,13.181185 4.63904644,12.878785 4.8970944,12.5804171 C4.97168639,12.711457 5.09869437,13.185217 5.30029435,13.165057 C5.50189432,13.144897 5.52003832,12.782017 5.53818231,12.634849 C5.56832858,12.1503507 5.44180798,11.6690069 5.17731836,11.2619532 C5.14097244,11.1871085 5.05313928,11.1528536 4.97571839,11.1833292 C4.8729024,11.2438092 4.95354239,11.3446092 4.9293504,11.4312972 C4.8729024,11.5905612 4.81847041,12.0784331 4.71363843,12.2054411 Z M3.66330257,13.8807369 C3.57258258,13.9633929 3.29639062,14.3161928 3.17139864,14.1831368 C3.04640665,14.0500809 3.37299861,13.6287369 3.4294466,13.5380169 C3.68547857,13.146913 4.1310145,12.5804171 4.63904644,12.5300171 C4.39542536,13.033934 4.06515598,13.4911251 3.66330257,13.8807369 L3.66330257,13.8807369 Z M5.07450238,11.6490252 C5.32650234,12.1227851 5.37891833,12.4554251 5.25392635,12.771937 C4.99935688,12.4558745 4.93109744,12.0286779 5.07450238,11.6490252 L5.07450238,11.6490252 Z" id="Shape" fill="url(#linearGradient-39)" fill-rule="nonzero"></path>
                    <path d="M3.78023055,9.70358545 C3.92941453,9.46368148 4.58663044,9.3003855 4.85879041,9.23587351 C5.13095037,9.17136152 5.01200638,9.15523352 5.00797438,9.2862735 C4.98339228,9.40516137 4.91860586,9.51195217 4.82451841,9.58867346 C4.69549443,9.69148945 4.59469444,9.64713746 4.57856644,9.85075343 C4.57901406,9.94907249 4.62070339,10.0426906 4.69347843,10.1088014 C4.72626312,10.1565297 4.77798738,10.1878569 4.83547303,10.1948014 C4.89295869,10.201746 4.95065504,10.1836375 4.99386239,10.1450894 C5.19546236,10.0321934 5.09063037,9.94348942 5.09869437,9.76003344 C5.12448088,9.48770038 5.24844306,9.23404365 5.44746233,9.04636954 C5.6631743,8.87904156 6.00387825,8.84476957 6.25386222,8.70163358 C6.3405502,8.65324959 6.63690216,8.53027361 6.66714216,8.42947362 C6.73770215,8.18150566 6.42723819,8.34480163 6.3586942,8.37705763 C6.09661424,8.50809761 5.89098226,8.70969758 5.57447031,8.6250256 C5.33255034,8.5605136 5.29626235,8.32060964 5.26803835,8.06860967 C5.24586235,7.8851537 5.26803835,7.40131376 4.9192704,7.56864174 C4.61687044,7.70976172 4.9011264,7.92144169 4.99184639,8.05651367 C5.15715836,8.30851364 5.11885437,8.51414561 4.82855041,8.43955362 C4.58490929,8.39794239 4.36019762,8.28171222 4.1854465,8.10691367 C4.07658251,7.96982568 3.82659855,7.64726573 3.68346257,7.98192168 C3.50605459,8.38512163 5.05031038,8.71574558 5.33456634,8.80848157 C5.15111037,8.93145755 4.75597442,9.12499353 4.52816645,9.08064153 C4.26608649,9.03024154 4.06448651,8.74598558 3.85885454,8.6250256 C3.65322257,8.50406561 3.25405462,8.75808158 3.50605459,9.00604954 C3.60080658,9.10080153 3.68749456,9.02822554 3.80039055,9.03427354 C3.96598776,9.0696465 4.12795778,9.12026213 4.28423048,9.18547352 C4.1365321,9.26391443 3.97729344,9.31835499 3.81248655,9.3467535 C3.66733457,9.36892949 3.47379859,9.3306255 3.36291861,9.44352148 C3.11091864,9.69955345 3.60282258,9.98985741 3.78023055,9.70358545 Z" id="Path" fill="url(#linearGradient-40)" fill-rule="nonzero"></path>
                    <path d="M6.06839024,12.1389131 C6.08250224,12.2659211 6.06839024,12.5421131 6.22563822,12.5703371 C6.3828862,12.5985611 6.42723819,12.2477771 6.44739819,12.1671371 C6.62801334,11.6654522 6.8675795,11.1869966 7.16106209,10.7418253 C7.47152605,10.2781454 7.860614,9.87696142 8.18922195,9.42739349 C8.51782991,8.97782555 8.67104589,8.41939362 8.86054986,7.8649937 C8.95530185,7.59081774 8.52186191,7.8468497 8.48960591,7.8649937 C8.26179794,8.00208168 8.04003797,8.14521766 7.82231,8.29843364 C6.55399162,9.13538016 5.87335624,10.6218252 6.06839024,12.1288331 L6.06839024,12.1389131 Z M8.50170191,8.12707366 C8.23962194,9.2963535 7.22960608,10.0180814 6.68730216,11.0462413 C6.54416618,11.3204172 6.42723819,11.6087052 6.28410221,11.8869132 C6.14701423,10.2841934 7.1146941,8.85081756 8.50170191,8.12707366 Z" id="Shape" fill="url(#linearGradient-41)" fill-rule="nonzero"></path>
                    <path d="M3.87699854,11.8768332 C3.98787852,11.7659532 4.24995849,11.6066892 4.28019848,11.4373452 C4.32455048,11.2115532 4.1652865,11.2619532 3.97376653,11.2680012 C3.730636,11.2666017 3.48763097,11.2793914 3.24599063,11.3063052 C2.30048675,11.4353292 1.57271085,11.9856971 0.826790955,12.5280011 C0.669542976,12.642913 -0.0622649242,13.088449 0.00426306669,13.334401 C0.0889350552,13.6569609 0.957830937,13.4009289 1.12717491,13.354561 C1.96291485,13.1447167 2.7538173,12.785464 3.4617026,12.2941451 C3.61283907,12.1682894 3.75187623,12.0285773 3.87699854,11.8768332 L3.87699854,11.8768332 Z M0.361095018,13.241665 C0.262311032,13.040065 1.83680682,12.0582731 2.05856679,11.9352971 C2.32863129,11.7835313 2.61733883,11.6676417 2.91738267,11.5905612 C3.11898264,11.5381452 3.73386256,11.3688012 3.90119054,11.5542732 C3.4479624,12.0383322 2.91205604,12.4377019 2.31863075,12.733633 C2.09082278,12.840481 0.480039002,13.4856009 0.361095018,13.241665 Z" id="Shape" fill="url(#linearGradient-42)" fill-rule="nonzero"></path>
                    <path d="M10.9793656,6.86908983 C10.2783083,7.32387476 9.72434168,7.97238688 9.38470979,8.73590558 C9.22012651,9.10836972 9.0853049,9.49328544 8.98150984,9.88704142 C8.85651786,10.3083854 9.12061382,10.1712974 9.3222138,9.92131342 C9.89677372,9.20361752 10.5318136,8.53632161 11.1366136,7.8408017 C11.2770231,7.68595478 11.3981907,7.51469547 11.4974775,7.33075377 C11.6185294,7.14818707 11.7160673,6.95107911 11.7877815,6.74409785 C11.8180215,6.26227392 11.1426615,6.76828985 10.9793656,6.86908983 Z" id="Path" fill="url(#linearGradient-43)" fill-rule="nonzero"></path>
                    <path d="M3.66330257,19.9065601 C4.10077451,19.8380161 4.1572225,19.4670721 4.1874625,19.1122562 C4.21367049,18.7896962 4.62090244,18.7896962 4.59066244,18.4348803 C4.56042245,18.0800643 4.11690251,17.8683843 3.81248655,17.7978243 C3.14317464,17.6405764 2.24000676,18.2413443 2.08880678,18.9066242 C1.9819588,19.1868482 1.91744681,19.7251201 2.11501478,19.985184 C2.2087647,20.1114562 2.35515676,20.1878687 2.51235558,20.1925847 C2.66955441,20.1973007 2.82026383,20.1298012 2.92141467,20.009376 C3.02423066,19.9085761 3.07463065,19.8077761 3.20768663,19.8077761 C3.34074261,19.8077761 3.47581459,19.9327681 3.66330257,19.9065601 Z M3.22583063,19.5598081 C2.82263068,19.3582081 2.98592666,19.7956801 2.64723871,19.9206721 C2.27629476,20.055744 2.22186276,19.6384321 2.23395876,19.3824001 C2.23940122,19.202802 2.27063262,19.0249189 2.32669475,18.8542082 C2.39725474,18.6526082 2.41943074,18.6203522 2.61296671,18.5840642 C2.99802266,18.5114882 3.04640665,18.4550403 3.26615062,18.1344963 C3.46775059,17.8482243 3.90925453,17.9994243 4.1531905,18.1848963 C4.26608649,18.2715843 4.38301447,18.3864963 4.32051848,18.5376962 C4.25802249,18.6888962 4.11891851,18.6586562 4.00602252,18.7272002 C3.81853455,18.8441282 3.89514254,18.8017922 3.92538253,19.0033922 C3.95634092,19.1249189 3.95285058,19.2526652 3.91530253,19.3723201 C3.77015055,19.7533441 3.51210259,19.7029441 3.21776663,19.5598081 L3.22583063,19.5598081 Z" id="Shape" fill="url(#linearGradient-44)" fill-rule="nonzero"></path>
                    <path d="M9.69315775,5.17766606 C9.90665521,5.35398306 10.1308597,5.51691846 10.3644857,5.665538 C10.8759675,5.95175917 11.4516555,6.10365758 12.0377654,6.10704194 C12.3724214,6.10704194 12.5397494,6.02841795 12.2212214,5.80867398 C11.987187,5.63130887 11.7367363,5.476718 11.4732855,5.34701004 C10.8563896,5.07283408 10.2173177,4.97203409 9.57219776,4.80067412 C9.39478979,4.75229012 9.38672579,4.8954261 9.43914178,5.00227409 C9.47139778,5.06275408 9.63066176,5.13129807 9.69315775,5.17766606 Z M11.8805174,5.83488198 C11.2032906,5.86562535 10.5423895,5.6213319 10.0479737,5.15750607 C10.699191,5.25375416 11.3232619,5.48443382 11.8805174,5.83488198 L11.8805174,5.83488198 Z" id="Shape" fill="url(#linearGradient-45)" fill-rule="nonzero"></path>
                    <path d="M7.836422,6.59491387 C8.27880623,6.62989063 8.72391921,6.58967368 9.15286982,6.47596989 C9.84032573,6.31670591 9.22947781,6.07276994 8.90288585,5.94172996 C8.65491789,5.83488198 8.20333395,5.30870605 8.05414997,5.82883398 C7.97149398,6.11107394 8.19123795,6.07276994 8.37670993,6.06268994 C8.59856626,6.0628883 8.81562191,6.12730481 9.00166984,6.24816192 C8.73747874,6.31128314 8.4668944,6.34375326 8.19526995,6.34492991 C7.96544598,6.34492991 7.69530202,6.17961793 7.49370205,6.22396992 C7.29210207,6.26832192 7.16307809,6.45177789 7.30823007,6.61507387 C7.45338205,6.77836985 7.66506202,6.57072187 7.836422,6.59491387 Z" id="Path" fill="url(#linearGradient-46)" fill-rule="nonzero"></path>
                    <path d="M6.91107813,7.69161772 C7.3939885,7.71777155 7.87489692,7.6118323 8.30211794,7.38518576 C8.44122192,7.32268977 8.73354188,7.24406578 8.75773387,7.07472181 C8.78192587,6.90537783 8.6004859,6.82876984 8.44726992,6.79852984 C8.07186595,6.73659192 7.68655789,6.80412747 7.35459807,6.99004982 C7.163226,7.11772551 6.98850465,7.26874435 6.83447014,7.43961776 C6.70343015,7.60089773 6.72359015,7.60896173 6.91107813,7.69161772 Z" id="Path" fill="url(#linearGradient-47)" fill-rule="nonzero"></path>
                    <path d="M2.32064675,16.2011526 C2.25008676,16.3886405 1.9980868,16.9511045 2.23597476,17.0720644 C2.50611873,17.2111684 2.96576666,16.5801605 3.08672665,16.4188805 C3.20768663,16.2576006 3.33671061,15.5358727 2.99802266,15.5116807 C2.6593347,15.4874887 2.41136674,15.9693126 2.32064675,16.2011526 Z M2.79642269,15.9048006 C3.04237465,15.7032006 2.96173466,16.1064006 2.90125467,16.2455046 C2.80045469,16.4733125 2.57667872,16.6224965 2.41943074,16.8059525 C2.49200673,16.4833925 2.51216673,16.1245446 2.79642269,15.9048006 Z" id="Shape" fill="url(#linearGradient-48)" fill-rule="nonzero"></path>
                    <path d="M4.39107847,19.0054082 C4.35479047,19.1465282 4.54832645,19.2735361 4.63299844,19.1304002 C4.71767042,18.9872642 4.46970246,18.8461442 4.39107847,19.0054082 Z" id="Path" fill="url(#linearGradient-49)" fill-rule="nonzero"></path>
                    <path d="M19.3578604,4.07491421 C18.6683885,4.1495062 17.8579566,4.06281822 17.2390447,4.45392216 C17.0011568,4.60310614 15.7189809,5.58893001 16.3701488,5.69980999 C16.7289968,5.76028999 17.2128367,5.61312201 17.5575727,5.52441802 C17.9407362,5.42669557 18.3177263,5.30619338 18.6865325,5.16355407 C19.0547398,5.02495038 19.4085441,4.85074902 19.7429164,4.64342614 C20.0473323,4.45392216 20.3154603,4.29667418 20.6763243,4.45593816 C20.5755243,4.56480215 20.1622443,4.82889811 20.2368363,5.01235409 C20.3114283,5.19581006 20.6702763,5.10710607 20.8154282,5.07888208 C21.2893087,4.96555989 21.7137068,4.70172575 22.0250281,4.32691418 C22.0843553,4.26926916 22.0904514,4.17608526 22.0391401,4.11120221 C21.9504361,4.03257822 21.8778601,4.13741021 21.7891561,4.14144221 C21.6137641,4.14144221 21.1319402,4.24022619 20.9827562,4.1777302 C20.7811562,4.09709021 20.6118123,3.77453026 20.4283563,3.64550627 C20.203531,3.48240933 19.9598505,3.34703126 19.7025964,3.24230633 C19.4532281,3.13605301 19.1870682,3.07463151 18.9163565,3.06086635 C18.7631405,3.06086635 18.2793006,3.03869036 18.1865646,3.16166634 C17.9769006,3.4277783 19.1542445,3.95597023 19.3578604,4.07491421 Z M18.1301166,5.12525007 C17.6220847,5.29056205 17.0253487,5.49619402 16.4830448,5.46192203 C17.2027567,4.34909018 18.5353325,4.26845019 19.7368684,4.34505818 C19.3175404,4.74825812 18.6683885,4.9518741 18.1301166,5.12726607 L18.1301166,5.12525007 Z M18.6240365,3.29270632 C18.6986285,3.16166634 19.2106925,3.31891432 19.3175404,3.34915431 C19.7671084,3.4741463 20.4404523,3.73017826 20.6360043,4.2019222 C20.0833252,4.11962108 19.5495832,3.94011452 19.0594925,3.67171427 C18.9526445,3.61325028 18.5353325,3.4539863 18.6240365,3.29472232 L18.6240365,3.29270632 Z" id="Shape" fill="url(#linearGradient-50)" fill-rule="nonzero"></path>
                    <path d="M23.0814119,2.53872242 C23.3555879,2.60928241 23.7164518,3.18787434 23.8515238,3.4297943 C23.9865958,3.67171427 23.9744998,3.55075429 23.8515238,3.58704228 C23.7310376,3.59783245 23.6104028,3.56802855 23.5088039,3.50237029 C23.3696999,3.40963431 23.3838119,3.30077032 23.1842279,3.34713831 C23.0942944,3.37846266 23.0213252,3.44559437 22.9826279,3.53261029 C22.9465077,3.57811158 22.9317722,3.63698315 22.9421986,3.69413497 C22.9526249,3.7512868 22.9871994,3.80116263 23.0370599,3.83097825 C23.2043879,3.98419423 23.2628519,3.85920224 23.4402599,3.81485025 C23.707416,3.75721062 23.986434,3.79952955 24.2244838,3.93379423 C24.4482597,4.08902621 24.5833317,4.40352217 24.7929957,4.59504214 C24.8655717,4.66358613 25.0712037,4.9095381 25.1760356,4.9075221 C25.4340836,4.9075221 25.1760356,4.65350614 25.1336996,4.59907414 C24.9320997,4.39747417 24.6780837,4.25030619 24.6619557,3.92371424 C24.6518757,3.67373027 24.8635557,3.56688228 25.1014436,3.4640663 C25.2707876,3.38947431 25.7405156,3.26246633 25.4744036,2.98224236 C25.2486116,2.7362904 25.1336996,3.07094635 25.0288677,3.19795433 C24.8393637,3.4318103 24.6256677,3.4560023 24.6256677,3.15763434 C24.5938148,2.91190084 24.6396346,2.66235877 24.7567077,2.44397044 C24.8554917,2.30083446 25.0893476,1.9661785 24.7284837,1.92787451 C24.2869798,1.88150651 24.4361637,3.4519703 24.4321317,3.75235426 C24.2607718,3.61325028 23.9563558,3.29472232 23.9301478,3.06288235 C23.8999078,2.79878639 24.1115878,2.52057843 24.1660198,2.28873846 C24.2204518,2.05689849 23.8595878,1.76256253 23.6983078,2.06697849 C23.6358118,2.18390647 23.7305638,2.24438646 23.7567718,2.35526645 C23.7728939,2.52355318 23.7728939,2.69299565 23.7567718,2.86128238 C23.6364205,2.74415192 23.5362836,2.60791122 23.4604199,2.45808244 C23.3959079,2.32905845 23.3757479,2.12947448 23.2346279,2.05488249 C22.8858599,1.89965051 22.75482,2.46211443 23.0814119,2.53872242 Z" id="Path" fill="url(#linearGradient-51)" fill-rule="nonzero"></path>
                    <path d="M21.4383721,5.45385803 C21.3194282,5.50627402 21.0533162,5.57078601 21.0734762,5.73408199 C21.0936362,5.89737797 21.4383721,5.81875398 21.5250601,5.82278598 C22.0573349,5.84582125 22.5850848,5.93107315 23.0975399,6.07680194 C23.6337958,6.23606592 24.1317478,6.48000189 24.6599397,6.66547386 C25.2203876,6.86707383 25.7687396,6.82272184 26.3513635,6.83683384 C26.6416674,6.83683384 26.2687075,6.50822588 26.2404835,6.48403389 C26.0388835,6.30662591 25.8372835,6.13728193 25.6356836,5.97600196 C25.2397153,5.66122643 24.790397,5.42017878 24.3091558,5.26435405 C23.360275,4.98291468 22.3420242,5.05013068 21.4383721,5.45385803 Z M26.0005795,6.57676987 C24.8071077,6.67555386 23.8152358,5.92761796 22.67418,5.72803399 C22.369764,5.673602 22.0693801,5.647394 21.7548841,5.60102601 C23.2366439,4.97001809 24.8937957,5.46595403 26.0005795,6.57676987 Z" id="Shape" fill="url(#linearGradient-52)" fill-rule="nonzero"></path>
                    <path d="M20.5130283,3.00845036 C20.6787883,3.11603538 20.8542774,3.20782968 21.0371882,3.28262632 C21.1762922,3.35520231 21.4061162,3.55680229 21.5774761,3.53865829 C21.8073001,3.51446629 21.7105321,3.37737831 21.6480361,3.19593833 C21.5673961,2.96611437 21.4968361,2.7322584 21.3940202,2.51251443 C20.9908202,1.65168255 20.2428843,1.12147462 19.5009964,0.567074693 C19.3457644,0.450146709 18.6945965,-0.114333214 18.4929965,0.0207387673 C18.2107566,0.200162743 18.7147565,0.95213064 18.8095085,1.09929862 C19.2581264,1.83279356 19.8351762,2.47949913 20.5130283,3.00845036 Z" id="Path" fill="url(#linearGradient-53)" fill-rule="nonzero"></path>
                    <path d="M28.3008352,9.28425751 C28.7725791,9.17740952 28.0891552,8.67945759 27.9419873,8.5584976 C27.29819,8.02632785 26.5138708,7.69229189 25.6840676,7.59686574 C25.2792136,7.55119219 24.8713742,7.5377099 24.4643877,7.55654574 C24.0248998,7.55654574 24.2345638,7.77628971 24.5329317,7.89120169 C25.3897316,8.22585765 26.2162915,8.62704159 27.0589794,8.99193755 C27.2519086,9.08279084 27.454924,9.15046264 27.6637793,9.19353752 C27.8714623,9.2504907 28.0855097,9.28097214 28.3008352,9.28425751 Z M26.8614114,8.65526559 C26.2566115,8.37100963 25.6094756,8.16336166 25.0369317,7.8327377 C25.9985635,7.63113773 27.4379873,8.21577765 28.0609312,8.96169755 C27.6410881,8.96692444 27.227306,8.86121877 26.8614114,8.65526559 L26.8614114,8.65526559 Z" id="Shape" fill="url(#linearGradient-54)" fill-rule="nonzero"></path>
                    <path d="M15.225061,5.88931397 C15.5556849,5.75424199 15.6282609,5.26637005 15.5980209,4.95590609 C15.5496369,4.27046619 14.7029171,3.58704228 14.0255412,3.64349027 C13.7271732,3.62534628 13.1909173,3.72614626 13.0034293,3.99225823 C12.9143219,4.11897734 12.8871086,4.27912212 12.9293562,4.42816235 C12.9716038,4.57720259 13.0788073,4.69924497 13.2211573,4.76035412 C13.3461492,4.82688211 13.4550132,4.84502611 13.4973492,4.96195409 C13.5396852,5.07888208 13.4630772,5.27040205 13.5417012,5.43369803 C13.7433012,5.83689797 14.1102131,5.77440198 14.4569651,5.69577799 C14.7714611,5.643362 14.894437,6.03043395 15.225061,5.88931397 Z M14.1263411,5.52441802 C13.7231412,5.50829002 13.6929012,5.24822606 13.7412852,4.9196181 C13.8098292,4.47005016 13.4449332,4.76035412 13.2251893,4.47206616 C13.0054453,4.1837782 13.3663092,3.98217823 13.6142772,3.91968224 C13.788463,3.87828182 13.9677802,3.86265949 14.1465011,3.87331424 C14.3481011,3.87331424 14.3964851,3.88944224 14.4892211,4.07491421 C14.6726771,4.41965017 14.7412211,4.44989016 15.114181,4.56278615 C15.444805,4.66157013 15.436741,5.13734607 15.331909,5.42361803 C15.283525,5.55869001 15.210949,5.70384199 15.043621,5.68972999 C14.876293,5.675618 14.870245,5.53248202 14.7694451,5.44579403 C14.6021171,5.30265805 14.6666291,5.36313804 14.4831731,5.44579403 C14.3743649,5.50670224 14.2509662,5.53668045 14.1263411,5.53248202 L14.1263411,5.52441802 Z" id="Shape" fill="url(#linearGradient-55)" fill-rule="nonzero"></path>
                    <path d="M29.4378591,9.26409751 C29.5370866,8.98746043 29.6093269,8.70187504 29.653571,8.41132962 C29.730179,7.74201772 29.635427,7.1009298 29.607203,6.43564989 C29.607203,6.25219392 29.4600351,6.28646591 29.3793951,6.3671059 C29.3269791,6.4175059 29.3088351,6.59088187 29.2826271,6.66345786 C29.1783623,6.91980262 29.0901597,7.1823906 29.0185311,7.44969776 C28.8982203,8.02365958 28.9252697,8.61874534 29.0971551,9.17942552 C29.1878751,9.49996948 29.3229471,9.63504146 29.4378591,9.26409751 Z" id="Path" fill="url(#linearGradient-56)" fill-rule="nonzero"></path>
                    <path d="M27.7686113,6.69571386 C28.1294752,7.30051378 28.1718112,6.64732986 28.2060832,6.29251391 C28.2322912,6.02236995 28.6092832,5.43369803 28.0589152,5.44781003 C27.7645793,5.44781003 27.8573153,5.64941 27.9298913,5.82681798 C27.9974484,6.0380317 28.0016536,6.26440888 27.9419873,6.47798589 C27.8016773,6.24327385 27.6893592,5.99292619 27.6073313,5.73206599 C27.5327393,5.51635402 27.6073313,5.20790606 27.5125793,5.02848209 C27.4178273,4.84905811 27.1960674,4.78253012 27.0831714,4.96800209 C26.9521314,5.18774606 27.2343714,5.30064205 27.2625954,5.46998602 C27.3618912,5.90387128 27.5329131,6.31813943 27.7686113,6.69571386 L27.7686113,6.69571386 Z" id="Path" fill="url(#linearGradient-57)" fill-rule="nonzero"></path>
                    <path d="M27.0791394,6.49411389 C27.2807394,6.46185789 27.2666274,6.26832192 27.2504994,6.11510594 C27.1973708,5.73854661 27.018304,5.39107161 26.7424674,5.12928207 C26.5632707,4.98471336 26.3669043,4.86283074 26.1578275,4.76640212 C25.9562275,4.69181013 25.9562275,4.71197013 25.9380835,4.9155861 C26.0561462,5.38696681 26.3008399,5.81709784 26.6456994,6.15945793 C26.7485154,6.27436992 26.9118114,6.52838588 27.0791394,6.49411389 Z M26.2586275,5.11920207 C26.5993314,5.03251408 27.1214754,5.92560196 27.0105954,6.18969793 C26.9319714,6.12518594 26.1396835,5.15750607 26.2586275,5.12726607 L26.2586275,5.11920207 Z" id="Shape" fill="url(#linearGradient-58)" fill-rule="nonzero"></path>
                    <path d="M16.4669168,3.88944224 C16.6685168,3.96201823 17.3841967,3.86323424 17.3055727,3.53261029 C17.2269487,3.20198633 16.7007728,3.10723435 16.4447408,3.09312235 C16.2431409,3.08304235 15.6383409,3.01046636 15.5879409,3.27254632 C15.537541,3.57091428 16.2753968,3.82291425 16.4669168,3.88944224 Z" id="Path" fill="url(#linearGradient-59)" fill-rule="nonzero"></path>
                    <path d="M13.0135093,5.15347407 C13.0856879,5.14200804 13.1376366,5.07800716 13.1340127,5.00501335 C13.1303889,4.93201954 13.0723567,4.8734787 12.9993973,4.86921811 C12.8078773,4.88131411 12.7857013,5.18976206 13.0135093,5.15347407 Z" id="Path" fill="url(#linearGradient-60)" fill-rule="nonzero"></path>
                    <path d="M14.6222771,5.88931397 C14.4771251,5.88931397 14.4206771,6.12115394 14.5759091,6.15744193 C14.7311411,6.19372993 14.7956531,5.90745797 14.6222771,5.88931397 Z" id="Path" fill="url(#linearGradient-61)" fill-rule="nonzero"></path>
                </g>
            </g>
        </g>
    </g>
</svg>